<?xml version="1.0" encoding="utf-8"?>
<!-- Generator: Adobe Illustrator 25.2.3, SVG Export Plug-In . SVG Version: 6.00 Build 0)  -->
<svg version="1.1" id="Layer_1" xmlns="http://www.w3.org/2000/svg" xmlns:xlink="http://www.w3.org/1999/xlink" x="0px" y="0px"
	 viewBox="0 0 40 40" style="enable-background:new 0 0 40 40;" xml:space="preserve">
<style type="text/css">
	.st0{fill:#231F20;}
</style>
<path class="st0" d="M6.4,20.9h24.4L23,28.7c-0.4,0.4-0.4,1,0,1.4c0.4,0.4,1,0.4,1.4,0l9.3-9.3c0.1,0,0.1-0.1,0.1-0.1
	c0.2-0.2,0.3-0.4,0.3-0.7l0,0l0,0v-0.1c0,0,0,0,0,0v0c0,0,0,0,0,0l0,0c0,0,0,0,0,0l0,0l0,0l0,0l0,0l0,0v0l0,0c0-0.2-0.1-0.3-0.3-0.4
	l0,0l-0.1-0.1l0,0l0,0l0,0l-9.3-9.3c-0.2-0.2-0.4-0.3-0.7-0.3c-0.3,0-0.5,0.1-0.7,0.3c-0.4,0.4-0.4,1,0,1.4l7.7,7.7H6.4
	c-0.5,0.2-0.8,0.7-0.7,1.2C5.9,20.5,6.1,20.8,6.4,20.9L6.4,20.9z"/>
</svg>
