<svg width="28" height="28" viewBox="0 0 28 28" fill="none" xmlns="http://www.w3.org/2000/svg">
<g clip-path="url(#clip0_81_781)">
<path d="M24.9 0H3.1C1.4 0 0 1.4 0 3.1V24.9C0 26.6 1.4 28 3.1 28H24.9C26.6 28 28 26.6 28 24.9V3.1C28 1.4 26.6 0 24.9 0ZM4.4 10.2C4.5 10.2 4.6 10.1 4.7 10.1C7.3 9.4 9.9 8.7 12.5 8.1C15.1 7.4 17.6 6.7 20.2 6.1C20.3 6.1 20.4 6 20.5 6H20.6V6.1C20.5 6.3 20.3 6.6 20.2 6.8C18.8 9.2 17.4 11.6 16 13.9C15.8 14.2 15.6 14.6 15.2 14.8C14.8 15.1 14.4 15.2 14 15.3C13.5 15.4 13 15.3 12.6 15.1C12.2 14.9 11.8 14.7 11.5 14.5C9.6 13.4 7.8 12.3 5.9 11.2C5.4 10.9 4.9 10.6 4.5 10.4C4.5 10.4 4.5 10.4 4.4 10.4C4.3 10.3 4.3 10.3 4.4 10.2ZM6.3 21.2C6.2 21.2 6.2 21.3 6.3 21.2C6.2 21.2 6.2 21.2 6.1 21.2C6.1 21.1 6 21 6 20.8C5.6 19.3 5.2 17.9 4.8 16.4C4.4 14.9 4 13.5 3.7 12C3.7 11.9 3.7 11.8 3.6 11.7V11.6H3.7C3.9 11.7 4.1 11.8 4.3 12C5.9 12.9 7.6 13.9 9.2 14.8C9.4 14.9 9.5 15 9.7 15.1C9.8 15.1 9.8 15.2 9.7 15.3C9.3 16 8.9 16.7 8.5 17.3C7.8 18.6 7.1 19.9 6.3 21.2ZM23.6 17.8C23.5 17.8 23.4 17.9 23.3 17.9C20.7 18.6 18.2 19.3 15.6 19.9C13 20.6 10.4 21.3 7.8 21.9C7.7 21.9 7.6 21.9 7.5 22H7.4V21.9C7.5 21.7 7.6 21.5 7.7 21.4C8.7 19.6 9.8 17.8 10.8 16C10.9 15.8 10.9 15.8 11.1 15.9C11.4 16.1 11.8 16.3 12.1 16.5C12.5 16.7 12.9 16.8 13.3 16.8C13.8 16.8 14.3 16.8 14.8 16.6C15.4 16.4 16 16.1 16.4 15.6C16.8 15.2 17 14.8 17.2 14.4C17.4 14.1 17.4 14.1 17.7 14.3C19.6 15.4 21.6 16.6 23.5 17.7C23.5 17.7 23.5 17.7 23.6 17.7C23.7 17.7 23.7 17.7 23.6 17.8ZM24.4 16.5H24.3C24.1 16.4 23.9 16.2 23.6 16.1C21.8 15.1 20.1 14 18.3 13C18.1 12.9 18.1 12.9 18.2 12.7C19.3 10.7 20.5 8.8 21.6 6.8L21.7 6.7C21.7 6.6 21.8 6.6 21.8 6.7C21.9 6.9 22 7 22 7.1C22.4 8.6 22.8 10.1 23.2 11.5C23.6 13 24 14.4 24.4 15.9C24.4 16 24.5 16.2 24.5 16.3C24.4 16.4 24.4 16.5 24.4 16.5Z" fill="white"/>
</g>
<defs>
<clipPath id="clip0_81_781">
<rect width="28" height="28" fill="white"/>
</clipPath>
</defs>
</svg>
