<svg width="29" height="28" viewBox="0 0 29 28" fill="none" xmlns="http://www.w3.org/2000/svg">
<path d="M9.9552 28C10.4034 27.8089 10.7174 27.3674 10.7174 26.8534V23.4811C10.7174 23.3581 10.7275 23.2301 10.7432 23.1002C10.7344 23.1027 10.7262 23.1046 10.7174 23.1064C10.7174 23.1064 8.82609 23.1064 8.44783 23.1064C7.50217 23.1064 6.68261 22.7317 6.30435 21.9823C5.86304 21.1705 5.67391 19.7966 4.53913 19.0472C4.35 18.9223 4.47609 18.7349 4.85435 18.7349C5.23261 18.7974 6.05217 19.297 6.55652 19.9839C7.12391 20.6709 7.6913 21.2329 8.7 21.2329C10.2679 21.2329 11.1083 21.1549 11.6139 20.8863C12.2027 20.0189 13.0178 19.3594 13.8696 19.3594V19.3438C10.2963 19.2302 8.01346 18.0536 6.95054 16.237C4.64 16.2632 2.62828 16.4899 1.48026 16.6785C1.4437 16.4743 1.41217 16.2688 1.38507 16.0621C2.51796 15.8772 4.43826 15.658 6.64604 15.6162C6.57544 15.4438 6.51428 15.2671 6.46259 15.086C4.24913 14.9748 2.33891 15.0616 1.30122 15.1466C1.28861 14.9392 1.27159 14.7325 1.26907 14.5227C2.30865 14.4384 4.16717 14.3541 6.32389 14.4534C6.27409 14.1411 6.24194 13.822 6.24194 13.4898C6.24194 12.4281 6.6202 11.304 7.31367 10.3673C6.99846 9.30565 6.55715 7.05745 7.43976 6.24561C9.14194 6.24561 10.3398 7.05745 10.9072 7.55705C11.9783 7.11928 13.1761 6.86948 14.5 6.86948C15.8239 6.86948 17.0217 7.11928 18.0304 7.55643C18.5978 7.05683 19.7957 6.24498 21.4978 6.24498C22.4435 7.11928 21.9391 9.36747 21.6239 10.3667C22.3174 11.3034 22.6957 12.3651 22.6326 13.4892C22.6326 13.7914 22.6042 14.0831 22.5633 14.3691C24.7692 14.2617 26.6781 14.3478 27.7353 14.4328C27.7341 14.6432 27.7145 14.8487 27.7032 15.0567C26.6497 14.9705 24.6929 14.8818 22.4334 15.0011C22.3773 15.2109 22.3092 15.4151 22.2285 15.6131C24.464 15.6418 26.4303 15.856 27.6175 16.0434C27.5903 16.2507 27.5588 16.4562 27.5223 16.6597C26.3169 16.4686 24.2623 16.2451 21.9246 16.2338C20.875 18.0311 18.6338 19.2033 15.1304 19.3401V19.3594C16.7696 19.3594 18.2826 21.795 18.2826 23.4811V26.8534C18.2826 27.3674 18.5966 27.8089 19.0448 28C24.8202 26.1065 29 20.7109 29 14.3635C29 6.44357 22.4958 0 14.5 0C6.5042 0 0 6.44357 0 14.3635C0 20.7109 4.17978 26.1065 9.9552 28Z" fill="white"/>
</svg>
