<svg id="Layer_1" data-name="Layer 1" xmlns="http://www.w3.org/2000/svg" viewBox="0 0 40 40">
  <g id="UGbtmH.tif">
    <path fill="#FFF" d="M11.11,23.51l1.26,2.17.16-.05a1.42,1.42,0,0,0,.11-.33c0-1,.1-2,.13-3a1.78,1.78,0,0,0-1-1.65,11.77,11.77,0,0,1-1.64-1.06,1.72,1.72,0,0,1-.07-2.82,2.45,2.45,0,0,0,.4-3,3.7,3.7,0,0,1-.4-.94,1.49,1.49,0,0,1,1.09-1.92c.38-.12.82-.13.86-.69a1.27,1.27,0,0,0-.67-1.35c-.32-.17-.66-.3-1-.44l-.62-.24A2.68,2.68,0,0,1,11.19,7a4.3,4.3,0,0,1,4.69,1.15,8.62,8.62,0,0,0,.94,1c.4-1.09.63-2.13,1.73-2.73l.37,1.3a3.26,3.26,0,0,1,2.15-2l.16,1.88,1.68-.81.15.16a8.22,8.22,0,0,0-.26,1.09,6.27,6.27,0,0,0,.06,1,7.41,7.41,0,0,0,.84-.44c.5-.39.93-.87,1.46-1.21a3.93,3.93,0,0,1,4.57.23,6.53,6.53,0,0,1,.55.59c-.55.21-1,.37-1.49.59A1.2,1.2,0,0,0,28,10.28a.86.86,0,0,0,.48.54c1.5.5,1.9,1.37,1.14,2.77a2.78,2.78,0,0,0-.35,2.15,2,2,0,0,0,.53.9,1.81,1.81,0,0,1-.09,3.07,12.34,12.34,0,0,1-1.46.92,1.8,1.8,0,0,0-1,1.78c.06,1,.06,2.06.09,3.21a3.59,3.59,0,0,0,1.47-2.2A3.59,3.59,0,0,1,30,25.84a4.13,4.13,0,0,1-2.31,4.38,1.67,1.67,0,0,0-.6.58,4.74,4.74,0,0,1-3.18,2.28,2.33,2.33,0,0,0-.63.26,6.42,6.42,0,0,1-6.53,0,3.3,3.3,0,0,0-.86-.32,4.69,4.69,0,0,1-2.77-1.93,4.07,4.07,0,0,0-1.2-1.1,4.37,4.37,0,0,1-1-6.27C10.94,23.65,11,23.59,11.11,23.51Zm-.06,1.6c-.74,2.18.31,4.7,3.14,4.68l.73-2.33A4.35,4.35,0,0,1,11.05,25.11Zm14.77,4.7a3.28,3.28,0,0,0,3.08-4.63c-.77,1.67-2.28,2.07-3.82,2.3ZM22.62,29a3.82,3.82,0,0,0-1,.08.61.61,0,0,0-.35.51,1.79,1.79,0,0,0,1.27,1.26A1.72,1.72,0,0,0,24,29.68c.12-.37,0-.61-.38-.65S22.93,29,22.62,29Zm-5.3,0a6,6,0,0,0-.92.08c-.14,0-.35.16-.37.27-.1.64.37,1,.79,1.29a.8.8,0,0,0,1.1,0,3.49,3.49,0,0,0,.74-.93c.2-.36.06-.64-.38-.68Zm4.84-10.31a3.1,3.1,0,0,0,3.72.08c.9-.69,1.14-1.88.59-3.55Zm-4.51.06a13.49,13.49,0,0,0-4.28-3.42c-.12,1.48-.31,2.79,1.09,3.61A2.79,2.79,0,0,0,17.65,18.72Zm-5-9.88c.1.58.16,1.05.25,1.52s.38.71.78.57a.75.75,0,0,0,.46-1A1.91,1.91,0,0,0,12.68,8.84ZM27.29,9c-.78,0-1.58.74-1.48,1.36a1,1,0,0,0,.55.62.71.71,0,0,0,.62-.32A12.8,12.8,0,0,0,27.29,9Z"/>
  </g>
</svg>
