<svg id="Layer_1" data-name="Layer 1" xmlns="http://www.w3.org/2000/svg" viewBox="0 0 40 40">
  <g id="YtcE8J.tif">
    <g>
      <path fill="#FFF" d="M9.59,33.18Q15,19.11,20.46,5a4,4,0,0,0,.16-2c-.25-2.09,2.44-1.3,3.67-1.13a12.16,12.16,0,0,1,5.64,2.82c.69.72.61,1.06-.07,1.8a6.18,6.18,0,0,0-1.32,1.91c-3.36,8.62-6.71,17.24-10,25.9-.71,1.87-1.68,3.33-3.64,4H13.05a12.3,12.3,0,0,1-2.3-1.46,8.06,8.06,0,0,1-1.16-2Zm12-30.69a16,16,0,0,1-.5,3c-1.79,4.81-3.67,9.58-5.51,14.36-1.63,4.23-3.28,8.45-4.89,12.69a3.59,3.59,0,1,0,6.71,2.54q4.76-12.29,9.5-24.56c.67-1.74,1.06-3.65,2.73-4.8C28.54,3.91,23.51,2,21.57,2.49Z"/>
      <path fill="#FFF" d="M24.33,15.17c-2.6,6.74-5,13.12-7.64,19.79a2.88,2.88,0,0,1-3,1.93,3,3,0,0,1-2.48-4c1.55-4.13,3.15-8.24,4.76-12.35.58-1.5,2.12-2.21,3.57-2.61C22.21,17.12,21.76,17.44,24.33,15.17Zm-7,10.31a.83.83,0,0,0-1.66.08C15.56,26.68,17.36,26.57,17.28,25.48ZM15,27.77c.46-.55.66-.59.07-1-.15.14-.38.27-.43.44S14.82,27.48,15,27.77Zm4.62-5.52c-.47.54-.67.58-.09,1,.16-.15.39-.27.43-.44S19.79,22.54,19.62,22.25Z"/>
      <path fill="#FFF" d="M23.21,3.12a9.09,9.09,0,0,1,4.56,1.77c.18.14.24.42.36.64a2.07,2.07,0,0,1-.71.22c-1.68-.24-4-.77-4.84-2.33Z"/>
    </g>
  </g>
</svg>
