<svg width="28" height="28" viewBox="0 0 28 28" fill="none" xmlns="http://www.w3.org/2000/svg">
<path d="M24.8889 0H3.11111C1.39222 0 0 1.39222 0 3.11111V24.8889C0 26.6078 1.39222 28 3.11111 28H24.8889C26.6078 28 28 26.6078 28 24.8889V3.11111C28 1.39222 26.6078 0 24.8889 0ZM9.33333 21.7778H5.40867V10.8889H9.33333V21.7778ZM7.30178 8.89311C6.10244 8.89311 5.30133 8.09356 5.30133 7.02644C5.30133 5.95933 6.10089 5.15978 7.434 5.15978C8.63333 5.15978 9.43444 5.95933 9.43444 7.02644C9.43444 8.09356 8.63489 8.89311 7.30178 8.89311ZM23.3333 21.7778H19.5347V15.8262C19.5347 14.1804 18.522 13.8009 18.1424 13.8009C17.7629 13.8009 16.4967 14.0544 16.4967 15.8262C16.4967 16.0798 16.4967 21.7778 16.4967 21.7778H12.572V10.8889H16.4967V12.4087C17.0022 11.522 18.0149 10.8889 19.9142 10.8889C21.8136 10.8889 23.3333 12.4087 23.3333 15.8262V21.7778Z" fill="white"/>
</svg>
