<svg id="Layer_1" data-name="Layer 1" xmlns="http://www.w3.org/2000/svg" viewBox="0 0 40 40">
  <path d="M1,29.81V10.19c.29,0,.11-.27.18-.41a3.19,3.19,0,0,1,2.95-2H35.83A4.32,4.32,0,0,1,37.08,8a2.66,2.66,0,0,1,1.09.77A2.93,2.93,0,0,1,39,10.91C39,17,39,23,39,29.11a3,3,0,0,1-1.34,2.55,2.79,2.79,0,0,1-1.57.53H3.86a1.29,1.29,0,0,1-.44,0c-.92-.38-1.85-.76-2.16-1.86C1,30.25,1.29,29.85,1,29.81ZM13.91,19.06l-3.8-5.13h-3V26.07h3V17.93l3.84,5.14,3.87-5.14V26.1c1,0,2,0,2.95,0V13.92h-3Zm13.67,1H23.85l.83,1c.28.34.55.67.84,1,.55.62,1.12,1.22,1.68,1.83a1.14,1.14,0,0,1,.15.16c.52.76,1.22,1.37,1.8,2.15a15.1,15.1,0,0,1,1.63-2c.75-.89,1.55-1.74,2.3-2.63.43-.51.89-1,1.39-1.56H30.68V13.93h-3.1Z" style="fill: #fff"/>
</svg>
