<svg width="29" height="28" viewBox="0 0 29 28" fill="none" xmlns="http://www.w3.org/2000/svg">
<path d="M21 26.5475C20.9263 26.6212 20.9263 26.6212 21 26.5475H21.0737C21.0737 26.5475 21.0737 26.5475 21 26.5475ZM21.2211 26.4738C21.1474 26.4738 21.1474 26.4738 21.2211 26.4738C21.2948 26.4001 21.2948 26.4001 21.2211 26.4738ZM21.3685 26.4001C21.2948 26.4001 21.2948 26.4001 21.3685 26.4001C21.3685 26.3264 21.4421 26.3264 21.3685 26.4001ZM21.5158 26.3264C21.4421 26.3264 21.4421 26.3264 21.5158 26.3264V26.3264ZM21.6632 26.1791C21.5158 26.2528 21.5895 26.2528 21.6632 26.1791C21.6632 26.1791 21.8106 26.1054 21.7369 26.1054C21.7369 26.1054 21.7369 26.1791 21.6632 26.1791ZM13.3369 0.315918C13.2632 0.315918 13.1158 0.315918 12.8948 0.389602C8.91582 0.758023 5.15793 2.89487 2.80004 6.21066C1.47372 8.05276 0.663187 10.1159 0.294766 12.3264C0.147398 13.0633 0.1474 13.358 0.1474 14.3896C0.1474 15.4212 0.147398 15.6422 0.294766 16.4528C1.03161 21.6843 4.7895 26.1054 9.87371 27.8001C10.7579 28.0949 11.7158 28.3159 12.8211 28.3896C13.2632 28.4633 15.1053 28.4633 15.4737 28.3896C17.3895 28.1686 18.9369 27.7264 20.4842 26.9159C20.7053 26.7686 20.779 26.7686 20.7053 26.7686C19.9684 25.737 19.1579 24.7054 18.4211 23.7475L16.2106 20.7264L13.4106 16.6001C12.4527 15.2001 11.5684 13.8001 10.6106 12.4738C10.6106 12.4738 10.6106 14.3159 10.6106 16.6001C10.6106 20.5791 10.6106 20.7264 10.5369 20.8001C10.4632 20.8738 10.3895 21.0212 10.3158 21.0212C10.2421 21.0949 10.1685 21.0949 9.72635 21.0949H9.28424L9.13687 21.0212C9.06319 20.9475 8.9895 20.8738 8.9895 20.8001L8.91582 20.6528V15.2001V9.67381L8.9895 9.60013C9.06319 9.52645 9.13688 9.45276 9.21056 9.45276C9.35793 9.37908 9.35792 9.37908 9.87371 9.37908C10.4632 9.37908 10.5369 9.37908 10.6842 9.52645C11.7895 11.2212 12.9684 12.9159 14.0737 14.6107C15.9158 17.337 18.3474 21.0949 19.6 23.0107L21.8106 26.4001L21.9579 26.3264C22.9895 25.5896 24.0211 24.7791 24.8316 23.8212C26.6 21.8317 27.7053 19.3264 28.1474 16.6738C28.2948 15.937 28.2948 15.6422 28.2948 14.6107C28.2948 13.5791 28.2948 13.358 28.1474 12.5475C27.4106 7.31592 23.6527 2.89487 18.5685 1.20013C17.6106 0.905392 16.6527 0.684339 15.6211 0.610655C15.3263 0.315918 13.5579 0.315918 13.3369 0.315918ZM19.0106 8.7896C19.1579 8.86329 19.2316 8.93697 19.3053 9.08434C19.3053 9.15802 19.3053 10.7054 19.3053 14.0949V19.0317L18.4211 17.7054L17.5369 16.3791V12.8422C17.5369 10.558 17.5369 9.23171 17.5369 9.15802C17.6106 9.01066 17.6842 8.86329 17.8316 8.7896C17.979 8.71592 17.979 8.71592 18.4211 8.71592C18.8632 8.71592 18.9369 8.71592 19.0106 8.7896Z" fill="white"/>
</svg>
