<svg width="33" height="28" viewBox="0 0 33 28" fill="none" xmlns="http://www.w3.org/2000/svg">
<path d="M19.1789 14C19.1789 12.4526 17.8526 11.2 16.3053 11.2C14.6842 11.2 13.4316 12.4526 13.4316 14C13.4316 15.5473 14.7579 16.8 16.3053 16.8C17.9263 16.8 19.1789 15.5473 19.1789 14Z" fill="white"/>
<path fill-rule="evenodd" clip-rule="evenodd" d="M25.6631 8.76842C26.2526 6.33684 27.0631 1.91578 24.3368 0.442099C21.6842 -1.03158 18.1473 1.8421 16.3052 3.53684C14.4631 1.8421 10.8526 -1.03158 8.19997 0.442099C5.54734 1.91578 6.35787 6.33684 6.94734 8.76842C4.44208 9.43157 0.168396 10.9789 0.168396 14C0.168396 17.021 4.44208 18.6421 6.94734 19.3053C6.35787 21.7368 5.54734 26.0842 8.19997 27.5579C10.9263 29.1053 14.4631 26.3053 16.3789 24.5368C18.221 26.3053 21.6842 29.1053 24.4105 27.5579C27.1368 26.0105 26.4 21.6632 25.8105 19.2316C28.2421 18.5684 32.5158 16.9474 32.5158 14C32.4421 10.9789 28.1684 9.50526 25.6631 8.76842ZM25.3684 17.9789C24.9263 16.7263 24.4105 15.4 23.7473 14C24.4105 12.6737 24.9263 11.3474 25.2947 10.0947C27.1368 10.6105 31.0421 11.7895 31.0421 14C31.0421 16.2105 27.2842 17.3895 25.3684 17.9789ZM23.6737 26.3789C21.6842 27.4842 18.6631 24.8316 17.3368 23.5053C18.221 22.5474 19.1789 21.4421 20.0631 20.1895C21.6105 20.0421 23.0842 19.821 24.4105 19.5263C24.8526 21.2947 25.6631 25.2737 23.6737 26.3789ZM8.86313 26.3789C6.87365 25.2737 7.75786 21.4421 8.19997 19.6C9.52628 19.8947 11 20.1158 12.5473 20.1895C13.4315 21.4421 14.3894 22.5474 15.3473 23.5053C14.2421 24.6842 10.9263 27.5579 8.86313 26.3789ZM1.49471 14C1.49471 11.7158 5.47366 10.6105 7.31576 10.0947C7.68418 11.3474 8.27365 12.6737 8.86313 14.0737C8.19997 15.4737 7.68418 16.8 7.24208 18.0526C5.54734 17.5368 1.49471 16.2105 1.49471 14ZM8.86313 1.62105C10.8526 0.515784 14.021 3.2421 15.3473 4.49473C14.3894 5.45263 13.5052 6.55789 12.621 7.81052C11.0737 7.95789 9.67366 8.17894 8.27366 8.47368C7.75787 6.4842 6.87365 2.72631 8.86313 1.62105ZM21.021 9.21052C22.0526 9.35789 23.0105 9.50526 23.9684 9.72631C23.6737 10.6105 23.3789 11.4947 22.9368 12.4526C22.3473 11.3474 21.6842 10.2421 21.021 9.21052ZM16.3052 5.45263C16.9684 6.11578 17.5579 6.85263 18.221 7.66315C16.9684 7.58947 15.6421 7.58947 14.3894 7.66315C15.0526 6.85263 15.6421 6.11578 16.3052 5.45263ZM9.67365 12.4526C9.30523 11.4947 8.93682 10.6105 8.64208 9.72631C9.59997 9.50526 10.5579 9.35789 11.5894 9.21052C10.9263 10.2421 10.2631 11.3474 9.67365 12.4526ZM11.5894 18.7895C10.5579 18.6421 9.52629 18.4947 8.64208 18.3474C8.93682 17.4632 9.30523 16.5053 9.67365 15.5474C10.2631 16.6526 10.9263 17.7579 11.5894 18.7895ZM16.3789 22.621C15.7158 21.9579 15.0526 21.1474 14.4631 20.3368C15.7158 20.4105 17.0421 20.4105 18.2947 20.3368C17.6315 21.1474 16.9684 21.9579 16.3789 22.621ZM22.9368 15.5474C23.3789 16.5053 23.7473 17.3895 24.0421 18.2737C23.0842 18.4947 22.1263 18.6421 21.021 18.7895C21.6842 17.7579 22.3473 16.6526 22.9368 15.5474ZM19.2526 18.9368C17.2631 19.0842 15.3473 19.0842 13.3579 18.9368C12.2526 17.3895 11.221 15.6947 10.4105 14C11.2947 12.3053 12.2526 10.6105 13.3579 9.06315C15.3473 8.91578 17.2631 8.91578 19.2526 9.06315C20.3579 10.6105 21.3158 12.3053 22.2 14C21.3158 15.6947 20.3579 17.3895 19.2526 18.9368ZM23.6737 1.54736C25.6631 2.65263 24.7789 6.70526 24.3368 8.39999C23.0105 8.10526 21.5368 7.8842 19.9894 7.73684C19.1052 6.4842 18.1473 5.37894 17.2631 4.42105C18.6631 3.2421 21.6842 0.442099 23.6737 1.54736Z" fill="white"/>
</svg>
