<svg width="48" height="48" viewBox="0 0 48 48" fill="none" xmlns="http://www.w3.org/2000/svg">
<path d="M33.6 24.9C33.6 27.6 33.7 32 35.7 32C37.7 32 40 27.1 40 24.4C40 21.7 39.4 20 37.3 20C35.2 20 33.6 22.2 33.6 24.9ZM14.4 24.9C14.4 27.6 14.3 32 12.3 32C10.3 32 8 27.1 8 24.4C8 21.7 8.6 20 10.7 20C12.8 20 14.4 22.2 14.4 24.9Z" fill="#FFA726"/>
<path d="M24 2C16.3 2 10 8.7 10 17.1C10 22.5 11.9 33.7 14 37C16.1 40.2 21.3 44 24 44C26.7 44 31.9 40.2 34 37C36.1 33.7 38 22.5 38 17.1C38 8.7 31.7 2 24 2Z" fill="#FFB74D"/>
<path d="M33 10.1001C33 8.2001 31.4 6.5001 29.3 6.1001C28.9 6.0001 28 5.9001 28 6.9001C28 8.8001 29.6 10.5001 31.7 10.9001C32.1 11.0001 33 11.1001 33 10.1001Z" fill="#FFE0B2"/>
<path d="M35 22.1999C35 20.8999 30.4 20.8999 30.4 20.8999C30.4 20.8999 27 20.9999 27 23.4999C27 25.2999 29.8 25.9999 31.4 25.9999C33.2 25.9999 35 24.6999 35 22.1999Z" fill="white"/>
<path d="M31 22C30.7348 22 30.4804 22.1054 30.2929 22.2929C30.1054 22.4804 30 22.7348 30 23C30 23.2652 30.1054 23.5196 30.2929 23.7071C30.4804 23.8946 30.7348 24 31 24C31.2652 24 31.5196 23.8946 31.7071 23.7071C31.8946 23.5196 32 23.2652 32 23C32 22.7348 31.8946 22.4804 31.7071 22.2929C31.5196 22.1054 31.2652 22 31 22Z" fill="#263238"/>
<path d="M27 34C27 34 24.7 34 23.6 34C22.9 34 22.5 34.5 22.5 35C22.5 35.5 23 36 24.2 36C25.9 36 27 34 27 34Z" fill="#FF6D00"/>
<path d="M22.3 35.5C21.7 35 22 34 22.8 34H24.4C25.1 34 25.5 34.5 25.5 35C25.5 35.5 25 36 23.8 36C23.3 36 22.8 35.8 22.3 35.5Z" fill="#FF6D00"/>
<path d="M21 19H17C16.4 19 16 18.6 16 18C16 17.4 16.4 17 17 17H21C21.6 17 22 17.4 22 18C22 18.6 21.6 19 21 19ZM32 19H28C27.4 19 27 18.6 27 18C27 17.4 27.4 17 28 17H32C32.6 17 33 17.4 33 18C33 18.6 32.6 19 32 19ZM20.1 21H18.8V23.2H21V29H23V23.9C23 22.3 21.7 21 20.1 21Z" fill="#FF9100"/>
<path d="M14 22.1999C14 20.8999 18.6 20.8999 18.6 20.8999C18.6 20.8999 22 20.8999 22 23.3999C22 25.1999 19.2 25.8999 17.6 25.8999C15.8 25.9999 14 24.6999 14 22.1999Z" fill="white"/>
<path d="M18 22C17.7348 22 17.4804 22.1054 17.2929 22.2929C17.1054 22.4804 17 22.7348 17 23C17 23.2652 17.1054 23.5196 17.2929 23.7071C17.4804 23.8946 17.7348 24 18 24C18.2652 24 18.5196 23.8946 18.7071 23.7071C18.8946 23.5196 19 23.2652 19 23C19 22.7348 18.8946 22.4804 18.7071 22.2929C18.5196 22.1054 18.2652 22 18 22Z" fill="#263238"/>
<path d="M24 32C22.3 32 21 30.7 21 29C21 28.4 21.4 28 22 28C22.6 28 23 28.4 23 29C23 29.6 23.4 30 24 30C24.6 30 25 30.4 25 31C25 31.6 24.6 32 24 32Z" fill="#FF9100"/>
</svg>
