<svg width="28" height="28" viewBox="0 0 28 28" fill="none" xmlns="http://www.w3.org/2000/svg">
<path d="M26.6737 0H1.32632C0.589474 0 0 0.589474 0 1.32632V26.6737C0 27.4105 0.589474 28 1.32632 28H26.6737C27.4105 28 28 27.4105 28 26.6737V1.32632C28 0.589474 27.4105 0 26.6737 0ZM15.1053 14.1474H11.1263V25.4211H7.95789V14.1474H3.90526V11.6421H15.0316V14.1474H15.1053ZM25.1263 23.4316C24.8316 23.9474 24.4632 24.3895 23.9474 24.6842C23.4316 25.0526 22.8421 25.2737 22.1789 25.4211C21.5158 25.5684 20.7789 25.6421 20.1158 25.6421C19.3789 25.6421 18.6421 25.5684 17.9789 25.4211C17.3895 25.3474 16.8 25.1263 16.2105 24.8316V21.7368C16.7263 22.1789 17.3895 22.5474 17.9789 22.7684C18.6421 22.9895 19.3053 23.1368 19.9684 23.1368C20.3368 23.1368 20.6316 23.1368 21 23.0632C21.2211 22.9895 21.5158 22.9158 21.7368 22.7684C21.8842 22.6947 22.0316 22.4737 22.1789 22.3263C22.2526 22.1789 22.3263 21.9579 22.3263 21.8105C22.3263 21.5158 22.2526 21.2947 22.1053 21.0737C21.9579 20.8526 21.7368 20.6316 21.5158 20.4842C21.2211 20.2632 20.9263 20.1158 20.5579 19.9684C20.1895 19.8211 19.8211 19.6 19.3789 19.4526C18.4947 19.0842 17.6105 18.5684 16.9474 17.8316C16.4316 17.1684 16.1368 16.3579 16.1368 15.4737C16.1368 14.8105 16.2842 14.2211 16.5789 13.6316C16.8737 13.1158 17.2421 12.6737 17.7579 12.3789C18.2737 12.0105 18.8632 11.7895 19.4526 11.6421C20.1158 11.4947 20.8526 11.4211 21.5158 11.4211C22.1789 11.4211 22.7684 11.4947 23.4316 11.5684C23.9474 11.6421 24.4632 11.7895 24.9789 11.9368V14.7368C24.7579 14.5895 24.4632 14.4421 24.2421 14.2947C23.9474 14.1474 23.7263 14.0737 23.4316 14C23.1368 13.9263 22.8421 13.8526 22.5474 13.8526C22.2526 13.7789 22.0316 13.7789 21.7368 13.7789C21.4421 13.7789 21.0737 13.7789 20.7789 13.8526C20.5579 13.9263 20.2632 14 20.0421 14.1474C19.8211 14.2211 19.6737 14.3684 19.6 14.5895C19.5263 14.7368 19.4526 14.9579 19.4526 15.1789C19.4526 15.4 19.5263 15.6211 19.6 15.7684C19.7474 15.9895 19.8947 16.1368 20.1158 16.2842C20.3368 16.4316 20.6316 16.6526 20.9263 16.8C21.2211 16.9474 21.5895 17.0947 22.0316 17.3158C22.5474 17.5368 23.0632 17.7579 23.5053 18.0526C23.9474 18.2737 24.3158 18.5684 24.6105 18.9368C24.9053 19.2316 25.2 19.6737 25.3474 20.0421C25.7158 21.1474 25.6421 22.3263 25.1263 23.4316Z" fill="white"/>
</svg>
