<svg width="124" height="28" viewBox="0 0 124 28" fill="none" xmlns="http://www.w3.org/2000/svg">
<path d="M61.6737 7C56.8105 7 53.3474 10.1684 53.3474 14.8842C53.3474 19.6 57.2526 22.7684 62.1158 22.7684C65.0631 22.7684 67.6421 21.5895 69.1895 19.6737L65.8737 17.7579C64.9895 18.7158 63.6631 19.3053 62.1158 19.3053C60.0526 19.3053 58.2105 18.2 57.5474 16.4316H69.7789C69.8526 15.9158 69.9263 15.4 69.9263 14.8842C70 10.1684 66.5368 7 61.6737 7ZM57.5474 13.3368C58.0632 11.5684 59.6105 10.4632 61.6737 10.4632C63.7368 10.4632 65.2842 11.5684 65.8 13.3368H57.5474ZM108.832 7C103.968 7 100.505 10.1684 100.505 14.8842C100.505 19.6 104.411 22.7684 109.274 22.7684C112.221 22.7684 114.8 21.5895 116.347 19.6737L113.032 17.7579C112.147 18.7158 110.821 19.3053 109.274 19.3053C107.211 19.3053 105.368 18.2 104.705 16.4316H116.937C117.011 15.9158 117.084 15.4 117.084 14.8842C117.158 10.1684 113.621 7 108.832 7ZM104.705 13.3368C105.221 11.5684 106.768 10.4632 108.832 10.4632C110.895 10.4632 112.442 11.5684 112.958 13.3368H104.705ZM87.6105 14.8842C87.6105 17.5368 89.3053 19.2316 91.9579 19.2316C93.7263 19.2316 95.1263 18.4211 95.7895 17.0947L99.1789 19.0105C97.779 21.2947 95.2 22.6947 91.9579 22.6947C87.0947 22.6947 83.6316 19.5263 83.6316 14.8105C83.6316 10.0947 87.0947 6.92632 91.9579 6.92632C95.2 6.92632 97.779 8.32632 99.1789 10.6105L95.7895 12.5263C95.1263 11.2 93.7263 10.3895 91.9579 10.3895C89.3053 10.4632 87.6105 12.2316 87.6105 14.8842ZM123.716 2.21053V22.3263H119.811V2.21053H123.716ZM16.1368 0L32.3474 28H0L16.1368 0ZM56.5895 2.21053L44.4316 23.2105L32.3474 2.21053H36.9158L44.5053 15.3263L52.0211 2.21053H56.5895ZM82.3789 7.44211V11.7158C81.9368 11.5684 81.4947 11.4947 80.9789 11.4947C78.4737 11.4947 76.6316 13.2632 76.6316 15.8421V22.3263H72.7263V7.44211H76.6316V11.4947C76.5579 9.21053 79.1368 7.44211 82.3789 7.44211Z" fill="white"/>
</svg>
