<svg id="Layer_1" data-name="Layer 1" xmlns="http://www.w3.org/2000/svg" viewBox="0 0 40 40">
  <g id="DAdoxO.tif">
    <path fill="#FFF" d="M11.5,8.86H31.25l.22,0a1.94,1.94,0,0,1,1.46,2.76c-.21.42-.44.83-.66,1.24q-2.25,4.2-4.49,8.4l-3.16,5.9c-.52,1-1,2-1.57,2.94A2,2,0,0,1,20.5,31a2.07,2.07,0,0,1-1-1L17.57,26.4c-.06-.12-.13-.23-.19-.36l-.05.07c-.47.89-.95,1.78-1.43,2.67a5.6,5.6,0,0,1-.36.64,1.25,1.25,0,0,1-1.23.5,1.27,1.27,0,0,1-1-.73L9.85,22.64,7.06,17.38a1.18,1.18,0,0,1-.09-1,1.29,1.29,0,0,1,1.27-.92h3.52a.59.59,0,0,1,0-.08c-.13-.25-.26-.5-.4-.75l-1.53-2.9a2,2,0,0,1-.2-1.21,2,2,0,0,1,1.57-1.64Zm5.9,6.61H13.16a.86.86,0,0,0-.76,1.27L13.06,18l3.29,6.19a3.76,3.76,0,0,0,.32.55.8.8,0,0,0,.86.35.9.9,0,0,0,.64-.51l2.24-4.19,1.94-3.62a1,1,0,0,0,.13-.46.84.84,0,0,0-.87-.83Z"/>
  </g>
</svg>
