<?xml version="1.0" encoding="utf-8"?>
<!-- Generator: Adobe Illustrator 25.2.3, SVG Export Plug-In . SVG Version: 6.00 Build 0)  -->
<svg version="1.1" id="Layer_1" xmlns="http://www.w3.org/2000/svg" xmlns:xlink="http://www.w3.org/1999/xlink" x="0px" y="0px"
	 viewBox="0 0 40 40" style="enable-background:new 0 0 40 40;" xml:space="preserve">
<style type="text/css">
	.st0{fill:#FFFFFF;}
</style>
<g id="DAdoxO.tif">
	<path class="st0" d="M7.6,3.7h28.8h0.3C38.3,4,39.4,5.4,39.1,7c0,0.3-0.1,0.6-0.2,0.8c-0.3,0.6-0.6,1.2-1,1.8
		c-2.2,4.1-4.4,8.2-6.6,12.3l-4.6,8.6c-0.8,1.5-1.5,2.9-2.3,4.3c-0.7,1.3-2.3,1.9-3.7,1.3c-0.6-0.3-1.2-0.8-1.5-1.5l-2.8-5.3
		c-0.1-0.2-0.2-0.3-0.3-0.5l-0.1,0.1c-0.7,1.3-1.4,2.6-2.1,3.9c-0.2,0.3-0.3,0.6-0.5,0.9c-0.4,0.6-1.1,0.9-1.8,0.7
		c-0.6-0.1-1.2-0.5-1.5-1.1l-5.1-9.6l-4.1-7.7c-0.3-0.4-0.3-1-0.1-1.5c0.2-0.8,1-1.4,1.9-1.3H8c0,0,0-0.1,0-0.1
		c-0.2-0.4-0.4-0.7-0.6-1.1L5.1,7.9C4.9,7.4,4.8,6.8,4.9,6.2C5,5,6,4,7.1,3.8L7.6,3.7z M16.2,13.4H10c-0.7,0-1.3,0.6-1.3,1.2
		c0,0.2,0.1,0.4,0.2,0.6l1,1.8l4.8,9c0.1,0.3,0.3,0.5,0.5,0.8c0.3,0.4,0.8,0.6,1.3,0.5c0.4-0.1,0.8-0.4,0.9-0.7l3.3-6.1l2.8-5.3
		c0.1-0.2,0.2-0.4,0.2-0.7c0-0.7-0.6-1.2-1.2-1.2c0,0,0,0,0,0L16.2,13.4z"/>
</g>
</svg>
