<?xml version="1.0" encoding="utf-8"?>
<!-- Generator: Adobe Illustrator 25.2.3, SVG Export Plug-In . SVG Version: 6.00 Build 0)  -->
<svg version="1.1" id="Layer_1" xmlns="http://www.w3.org/2000/svg" xmlns:xlink="http://www.w3.org/1999/xlink" x="0px" y="0px"
	 viewBox="0 0 50 50" style="enable-background:new 0 0 50 50;" xml:space="preserve">
<style type="text/css">
	.st0{fill:#FFFFFF;}
</style>
<path class="st0" d="M25,4.1C13.5,4.1,4.1,13.5,4.1,25S13.5,45.9,25,45.9S45.9,36.5,45.9,25S36.5,4.1,25,4.1z M25,8.6
	c3.8,0,7.4,1.4,10.2,3.6c-0.8,0.6-1.4,1.6-1.4,2.7c0,1.5,0.8,2.7,1.7,4.2c0.7,1.2,1.5,2.7,1.5,4.9c0,1.5-0.5,3.5-1.4,5.8l-1.9,6
	l-6.5-19.3c1-0.1,2.1-0.2,2.1-0.2c0.9-0.1,0.8-1.5-0.1-1.5c0,0,0,0-0.1,0c0,0-2.9,0.2-4.8,0.2c-1.7,0-4.8-0.2-4.8-0.2s0,0-0.1,0
	c-0.9,0-1,1.5-0.1,1.5c0,0,0.9,0.1,1.9,0.2l2.8,7.7l-3.7,11.7l-6.5-19.4c1-0.1,2.1-0.2,2.1-0.2c0.9-0.1,0.8-1.5-0.1-1.5
	c0,0,0,0-0.1,0c0,0-2,0.2-3.7,0.2C15,11.2,19.7,8.6,25,8.6z M8.6,25c0-1.6,0.2-3.3,0.7-4.7L16,38.8C11.6,35.8,8.6,30.7,8.6,25z
	 M20.1,40.7L25,26.5l5.1,14.1c-1.6,0.6-3.4,0.8-5.1,0.8C23.3,41.4,21.7,41.2,20.1,40.7z M34.4,38.4L34.4,38.4l4.8-14
	c0.7-1.9,1-3.4,1.3-4.9c0.6,1.6,0.9,3.5,0.9,5.3C41.4,30.6,38.6,35.5,34.4,38.4z"/>
</svg>
