<?xml version="1.0" encoding="utf-8"?>
<!-- Generator: Adobe Illustrator 25.2.3, SVG Export Plug-In . SVG Version: 6.00 Build 0)  -->
<svg version="1.1" id="Layer_1" xmlns="http://www.w3.org/2000/svg" xmlns:xlink="http://www.w3.org/1999/xlink" x="0px" y="0px"
	 viewBox="0 0 10 11" style="enable-background:new 0 0 10 11;" xml:space="preserve">
<style type="text/css">
	.st0{fill:#62788D;}
</style>
<path class="st0" d="M4.4,8.9c0.9,0,1.8-0.3,2.4-0.9l1.8,1.8c0,0.1,0.1,0.1,0.2,0.1c0.1,0,0.1,0.1,0.2,0.1c0.1,0,0.1,0,0.2,0
	S9.4,10,9.4,9.9s0.1-0.1,0.1-0.2c0-0.1,0-0.1,0-0.2c0-0.1,0-0.1-0.1-0.2c0-0.1-0.1-0.1-0.1-0.2L7.6,7.4c0.5-0.7,0.9-1.5,0.9-2.4
	c0-2.2-1.8-4-4-4s-4,1.8-4,4S2.2,8.9,4.4,8.9z M4.4,1.9c1.7,0,3,1.3,3,3s-1.3,3-3,3s-3-1.3-3-3S2.8,1.9,4.4,1.9z"/>
</svg>
